# xmcd
#
# Track frame offsets:
#       150
#       24662
#       44775
#       62432
#       80212
#       102787
#       116187
#       136832
#       158712
#
# Disc length: 2383 seconds
#
# Revision: 0
# Processed by: cddbd v1.4PL0 Copyright (c) Steve Scherf et al.
# Submitted via: CD-DA_X-Tractor v0.21
#
DISCID=78094d09
DTITLE=Bram Vermeulen cd1 - De beuk erin
DYEAR=1900
DGENRE=
TTITLE0=De beuk erin I
TTITLE1=Arizona bar
TTITLE2=Dat gaat goed zo
TTITLE3=De beuk erin II
TTITLE4=Ik voel niets
TTITLE5=De aap
TTITLE6=Boven op de berg
TTITLE7=Jan
TTITLE8=Vannacht
EXTD=
EXTT0=
EXTT1=
EXTT2=
EXTT3=
EXTT4=
EXTT5=
EXTT6=
EXTT7=
EXTT8=
PLAYORDER=
